<?xml version="1.0" encoding="UTF-8"?>
<svg id="Layer_1" xmlns="http://www.w3.org/2000/svg" version="1.1" viewBox="0 0 1657 396.7">
  <!-- Generator: Adobe Illustrator 29.1.0, SVG Export Plug-In . SVG Version: 2.1.0 Build 142)  -->
  <defs>
    <style>
      .st0 {
        fill: #edefed;
      }
    </style>
  </defs>
  <path class="st0" d="M.6,306.7v-36.7h242.8c7.1,0,13.6-2.7,18.8-7.9,5.2-5.2,7.9-11.7,7.9-18.8s-2.7-13.6-7.9-18.8c-5.2-5.2-11.7-7.9-18.8-7.9H63.3c-11.5,0-21.8-2.8-31.5-8.5-9.9-5.8-17.5-13.5-23.3-23.3-5.7-9.7-8.5-20-8.5-31.5s2.8-21.8,8.5-31.5c5.8-9.8,13.5-17.5,23.3-23.3,9.7-5.7,20-8.5,31.5-8.5h243.4v36.7H63.3c-7.1,0-13.6,2.7-18.8,7.9-5.2,5.2-7.9,11.7-7.9,18.8s2.7,13.6,7.9,18.8c5.2,5.2,11.7,7.9,18.8,7.9h180c11.5,0,21.8,2.8,31.5,8.5,9.8,5.8,17.4,13.5,23.3,23.3,5.7,9.7,8.5,20,8.5,31.5s-2.8,21.8-8.5,31.5c-5.8,9.8-13.5,17.5-23.3,23.3-9.7,5.7-20,8.5-31.5,8.5H.6Z"/>
  <path class="st0" d="M360.1,396.7v-243.4c0-11.5,2.8-21.8,8.5-31.5,5.8-9.8,13.5-17.5,23.3-23.3,9.7-5.7,20-8.5,31.5-8.5s21.8,2.8,31.5,8.5c9.8,5.8,17.5,13.5,23.3,23.3,5.7,9.7,8.5,20,8.5,31.5v90c0,11.5-2.8,21.8-8.5,31.5-5.8,9.8-13.5,17.5-23.3,23.3-9.7,5.7-20,8.5-31.5,8.5s-8-.3-9.1-.4c-.7-.1-1.5-.2-2.2-.2-3.7,0-7.3,1.3-10.1,3.8-3.4,2.9-5.3,7.2-5.3,11.7v75.2h-36.7ZM423.4,126.7c-7.1,0-13.6,2.7-18.8,7.9-5.2,5.2-7.9,11.7-7.9,18.8v90c0,7.1,2.7,13.6,7.9,18.8,5.2,5.2,11.7,7.9,18.8,7.9s13.6-2.7,18.8-7.9c5.2-5.2,7.9-11.7,7.9-18.8v-90c0-7.1-2.7-13.6-7.9-18.8-5.2-5.2-11.7-7.9-18.8-7.9Z"/>
  <path class="st0" d="M783.5,306.7c-10.9,0-20.9-2.6-30.5-7.9-9.6-5.3-17.2-12.5-23.2-21.8-5.8-9.1-9-18.8-9.7-29.6v-4.1c0-7.1-2.7-13.6-7.9-18.8-5.2-5.2-11.7-7.9-18.8-7.9s-13.6,2.7-18.8,7.9c-5.2,5.2-7.9,11.7-7.9,18.8,0,11.5-2.8,21.8-8.5,31.5-5.8,9.8-13.5,17.5-23.3,23.3-9.7,5.7-20,8.5-31.5,8.5s-21.8-2.8-31.5-8.5c-9.8-5.8-17.5-13.5-23.3-23.3-5.7-9.7-8.5-20-8.5-31.5s2.7-22,8.3-31.7c5.6-9.8,13.1-17.3,22.9-23.2,9.7-5.7,20-8.5,31.5-8.5h90.6c7.1,0,13.6-2.7,18.8-7.9,5.2-5.2,7.9-11.7,7.9-18.8s-2.7-13.6-7.9-18.8c-5.2-5.2-11.7-7.9-18.8-7.9h-153.4v-36.7h153.4c11.5,0,21.8,2.8,31.5,8.5,9.8,5.8,17.4,13.5,23.3,23.3,5.7,9.7,8.5,20,8.5,31.5s2.7,13.6,7.9,18.8c5.2,5.2,11.7,7.9,18.8,7.9s13.6-2.7,18.8-7.9c5.2-5.2,7.9-11.7,7.9-18.8,0-11.5,2.8-21.8,8.5-31.5,5.8-9.8,13.5-17.5,23.3-23.3,9.7-5.7,20-8.5,31.5-8.5s21.8,2.8,31.5,8.5c9.8,5.8,17.4,13.5,23.3,23.3,5.7,9.7,8.5,20,8.5,31.5s-2.8,21.8-8.5,31.5c-5.8,9.8-13.5,17.5-23.3,23.3-9.7,5.7-20,8.5-31.5,8.5h-90c-7.1,0-13.6,2.7-18.8,7.9-5.2,5.2-7.9,11.7-7.9,18.8s2.7,13.6,7.9,18.8c5.2,5.2,11.7,7.9,18.8,7.9h153.4v36.7h-153.4ZM603.4,216.7c-7.1,0-13.6,2.7-18.8,7.9-5.2,5.2-7.9,11.7-7.9,18.8s2.7,13.6,7.9,18.8c5.2,5.2,11.7,7.9,18.8,7.9s13.6-2.7,18.8-7.9c5.2-5.2,7.9-11.7,7.9-18.8s-2.7-13.6-7.9-18.8c-5.2-5.2-11.7-7.9-18.8-7.9ZM873.5,126.7c-7.1,0-13.6,2.7-18.8,7.9-5.2,5.2-7.9,11.7-7.9,18.8s2.7,13.6,7.9,18.8c5.2,5.2,11.7,7.9,18.8,7.9s13.6-2.7,18.8-7.9c5.2-5.2,7.9-11.7,7.9-18.8s-2.7-13.6-7.9-18.8c-5.2-5.2-11.7-7.9-18.8-7.9Z"/>
  <path class="st0" d="M1053.5,306.7c-11.5,0-21.8-2.8-31.5-8.5-9.9-5.8-17.5-13.5-23.3-23.3-5.7-9.7-8.5-20-8.5-31.5V0h36.7v74.6c0,8.5,6.9,15.4,15.4,15.4h74.6v36.7h-74.6c-8.5,0-15.4,6.9-15.4,15.4v101.3c0,7.1,2.7,13.6,7.9,18.8,5.2,5.2,11.7,7.9,18.8,7.9s13.6-2.7,18.8-7.9c5.2-5.2,7.9-11.7,7.9-18.8v-63.3h36.7v63.3c0,11.5-2.8,21.8-8.5,31.5-5.8,9.8-13.5,17.5-23.3,23.3-9.7,5.7-20,8.5-31.5,8.5Z"/>
  <path class="st0" d="M1170.2,306.7V90h36.7v216.7h-36.7ZM1188.5,36.7c-5.3,0-9.3-1.6-13-5.3-3.7-3.7-5.3-7.7-5.3-13s1.6-9.3,5.3-13c3.7-3.7,7.7-5.3,13-5.3s9.3,1.6,13,5.3c3.7,3.7,5.3,7.7,5.3,13s-1.6,9.3-5.3,13c-3.7,3.7-7.7,5.3-13,5.3Z"/>
  <path class="st0" d="M1530.3,306.7v-63.3c0-7.1-2.7-13.6-7.9-18.8-5.2-5.2-11.7-7.9-18.8-7.9s-13.6,2.7-18.8,7.9c-5.2,5.2-7.9,11.7-7.9,18.8,0,11.5-2.8,21.8-8.5,31.5-5.8,9.8-13.5,17.5-23.3,23.3-9.7,5.7-20,8.5-31.5,8.5h-90c-11.5,0-21.8-2.8-31.5-8.5-9.9-5.8-17.5-13.5-23.3-23.3-5.7-9.7-8.5-20-8.5-31.5s2.8-21.8,8.5-31.5c5.8-9.8,13.5-17.5,23.3-23.3,9.7-5.7,20-8.5,31.5-8.5h180c7.1,0,13.6-2.7,18.8-7.9,5.2-5.2,7.9-11.7,7.9-18.8s-2.7-13.6-7.9-18.8c-5.2-5.2,11.7-7.9-18.8-7.9h-243.4v-36.7h243.4c10.9,0,20.9,2.6,30.5,7.9,9.6,5.3,17.2,12.5,23.2,21.8,5.8,9.1,9,18.8,9.7,29.6v157.4h-36.7ZM1323.6,216.7c-7.1,0-13.6,2.7-18.8,7.9-5.2,5.2-7.9,11.7-7.9,18.8s2.7,13.6,7.9,18.8c5.2,5.2,11.7,7.9,18.8,7.9h90c7.1,0,13.6-2.7,18.8-7.9,5.2-5.2,7.9-11.7,7.9-18.8s-2.7-13.6-7.9-18.8c-5.2-5.2-11.7-7.9-18.8-7.9h-90Z"/>
  <rect class="st0" x="1620.3" width="36.7" height="306.7"/>
</svg>
